<?xml version="1.0" encoding="UTF-8" standalone="no"?>
<!-- Created with Inkscape (http://www.inkscape.org/) -->

<svg
   xmlns:dc="http://purl.org/dc/elements/1.1/"
   xmlns:cc="http://creativecommons.org/ns#"
   xmlns:rdf="http://www.w3.org/1999/02/22-rdf-syntax-ns#"
   xmlns:svg="http://www.w3.org/2000/svg"
   xmlns="http://www.w3.org/2000/svg"
   xmlns:sodipodi="http://sodipodi.sourceforge.net/DTD/sodipodi-0.dtd"
   xmlns:inkscape="http://www.inkscape.org/namespaces/inkscape"
   width="64"
   height="64"
   id="svg2"
   version="1.1"
   inkscape:version="0.48.4 r9939"
   sodipodi:docname="columns.svg">
  <defs
     id="defs4" />
  <sodipodi:namedview
     id="base"
     pagecolor="#ffffff"
     bordercolor="#666666"
     borderopacity="1.0"
     inkscape:pageopacity="0.0"
     inkscape:pageshadow="2"
     inkscape:zoom="3.959798"
     inkscape:cx="-22.049469"
     inkscape:cy="47.172556"
     inkscape:document-units="px"
     inkscape:current-layer="layer1"
     showgrid="false"
     inkscape:window-width="1051"
     inkscape:window-height="676"
     inkscape:window-x="114"
     inkscape:window-y="181"
     inkscape:window-maximized="0" />
  <metadata
     id="metadata7">
    <rdf:RDF>
      <cc:Work
         rdf:about="">
        <dc:format>image/svg+xml</dc:format>
        <dc:type
           rdf:resource="http://purl.org/dc/dcmitype/StillImage" />
        <dc:title></dc:title>
      </cc:Work>
    </rdf:RDF>
  </metadata>
  <g
     inkscape:label="Layer 1"
     inkscape:groupmode="layer"
     id="layer1"
     transform="translate(0,-988.36218)">
    <path
       style="fill:none;stroke:#535353;stroke-width:6;stroke-linecap:butt;stroke-linejoin:miter;stroke-miterlimit:4;stroke-opacity:1;stroke-dasharray:none"
       d="m 32,994.52542 0,51.67348"
       id="path3785"
       inkscape:connector-curvature="0" />
    <g
       id="g3794"
       transform="translate(-0.48712986,-1.7897098)">
      <path
         transform="matrix(0.65996631,0,0,0.65996631,1.8918909,999.74736)"
         d="m 9.3439109,33.94796 c 0,1.673675 -1.3567821,3.030458 -3.0304577,3.030458 -1.6736756,0 -3.0304577,-1.356783 -3.0304577,-3.030458 0,-1.673676 1.3567821,-3.030458 3.0304577,-3.030458 1.6736756,0 3.0304577,1.356782 3.0304577,3.030458 z"
         sodipodi:ry="3.0304577"
         sodipodi:rx="3.0304577"
         sodipodi:cy="33.94796"
         sodipodi:cx="6.3134532"
         id="path3755"
         style="fill:#afa9a9;fill-opacity:1;stroke:none"
         sodipodi:type="arc" />
      <path
         sodipodi:type="arc"
         style="fill:#afa9a9;fill-opacity:1;stroke:none"
         id="path3790"
         sodipodi:cx="6.3134532"
         sodipodi:cy="33.94796"
         sodipodi:rx="3.0304577"
         sodipodi:ry="3.0304577"
         d="m 9.3439109,33.94796 c 0,1.673675 -1.3567821,3.030458 -3.0304577,3.030458 -1.6736756,0 -3.0304577,-1.356783 -3.0304577,-3.030458 0,-1.673676 1.3567821,-3.030458 3.0304577,-3.030458 1.6736756,0 3.0304577,1.356782 3.0304577,3.030458 z"
         transform="matrix(0.65996631,0,0,0.65996631,9.1240345,999.74736)" />
      <path
         transform="matrix(0.65996631,0,0,0.65996631,16.356177,999.74736)"
         d="m 9.3439109,33.94796 c 0,1.673675 -1.3567821,3.030458 -3.0304577,3.030458 -1.6736756,0 -3.0304577,-1.356783 -3.0304577,-3.030458 0,-1.673676 1.3567821,-3.030458 3.0304577,-3.030458 1.6736756,0 3.0304577,1.356782 3.0304577,3.030458 z"
         sodipodi:ry="3.0304577"
         sodipodi:rx="3.0304577"
         sodipodi:cy="33.94796"
         sodipodi:cx="6.3134532"
         id="path3792"
         style="fill:#afa9a9;fill-opacity:1;stroke:none"
         sodipodi:type="arc" />
    </g>
    <g
       id="g3799"
       transform="translate(37.905729,-1.7897098)">
      <path
         sodipodi:type="arc"
         style="fill:#afa9a9;fill-opacity:1;stroke:none"
         id="path3801"
         sodipodi:cx="6.3134532"
         sodipodi:cy="33.94796"
         sodipodi:rx="3.0304577"
         sodipodi:ry="3.0304577"
         d="m 9.3439109,33.94796 c 0,1.673675 -1.3567821,3.030458 -3.0304577,3.030458 -1.6736756,0 -3.0304577,-1.356783 -3.0304577,-3.030458 0,-1.673676 1.3567821,-3.030458 3.0304577,-3.030458 1.6736756,0 3.0304577,1.356782 3.0304577,3.030458 z"
         transform="matrix(0.65996631,0,0,0.65996631,1.8918909,999.74736)" />
      <path
         transform="matrix(0.65996631,0,0,0.65996631,9.1240345,999.74736)"
         d="m 9.3439109,33.94796 c 0,1.673675 -1.3567821,3.030458 -3.0304577,3.030458 -1.6736756,0 -3.0304577,-1.356783 -3.0304577,-3.030458 0,-1.673676 1.3567821,-3.030458 3.0304577,-3.030458 1.6736756,0 3.0304577,1.356782 3.0304577,3.030458 z"
         sodipodi:ry="3.0304577"
         sodipodi:rx="3.0304577"
         sodipodi:cy="33.94796"
         sodipodi:cx="6.3134532"
         id="path3803"
         style="fill:#afa9a9;fill-opacity:1;stroke:none"
         sodipodi:type="arc" />
      <path
         sodipodi:type="arc"
         style="fill:#afa9a9;fill-opacity:1;stroke:none"
         id="path3805"
         sodipodi:cx="6.3134532"
         sodipodi:cy="33.94796"
         sodipodi:rx="3.0304577"
         sodipodi:ry="3.0304577"
         d="m 9.3439109,33.94796 c 0,1.673675 -1.3567821,3.030458 -3.0304577,3.030458 -1.6736756,0 -3.0304577,-1.356783 -3.0304577,-3.030458 0,-1.673676 1.3567821,-3.030458 3.0304577,-3.030458 1.6736756,0 3.0304577,1.356782 3.0304577,3.030458 z"
         transform="matrix(0.65996631,0,0,0.65996631,16.356177,999.74736)" />
    </g>
  </g>
</svg>
