<?xml version="1.0" encoding="UTF-8" standalone="no"?>
<!-- Created with Inkscape (http://www.inkscape.org/) -->

<svg
   xmlns:dc="http://purl.org/dc/elements/1.1/"
   xmlns:cc="http://creativecommons.org/ns#"
   xmlns:rdf="http://www.w3.org/1999/02/22-rdf-syntax-ns#"
   xmlns:svg="http://www.w3.org/2000/svg"
   xmlns="http://www.w3.org/2000/svg"
   xmlns:sodipodi="http://sodipodi.sourceforge.net/DTD/sodipodi-0.dtd"
   xmlns:inkscape="http://www.inkscape.org/namespaces/inkscape"
   width="64"
   height="64"
   id="svg2"
   version="1.1"
   inkscape:version="0.48.4 r9939"
   sodipodi:docname="rows.svg">
  <defs
     id="defs4" />
  <sodipodi:namedview
     id="base"
     pagecolor="#ffffff"
     bordercolor="#666666"
     borderopacity="1.0"
     inkscape:pageopacity="0.0"
     inkscape:pageshadow="2"
     inkscape:zoom="3.959798"
     inkscape:cx="25.851002"
     inkscape:cy="55.685788"
     inkscape:document-units="px"
     inkscape:current-layer="layer1"
     showgrid="false"
     inkscape:window-width="1051"
     inkscape:window-height="676"
     inkscape:window-x="986"
     inkscape:window-y="186"
     inkscape:window-maximized="0" />
  <metadata
     id="metadata7">
    <rdf:RDF>
      <cc:Work
         rdf:about="">
        <dc:format>image/svg+xml</dc:format>
        <dc:type
           rdf:resource="http://purl.org/dc/dcmitype/StillImage" />
        <dc:title />
      </cc:Work>
    </rdf:RDF>
  </metadata>
  <g
     inkscape:label="Layer 1"
     inkscape:groupmode="layer"
     id="layer1"
     transform="translate(0,-988.36218)">
    <g
       id="g2991"
       transform="translate(0,-2.0101323)">
      <path
         inkscape:connector-curvature="0"
         id="path3785"
         d="m 57.83674,1022.3723 -51.67348,0"
         style="fill:none;stroke:#535353;stroke-width:6;stroke-linecap:butt;stroke-linejoin:miter;stroke-miterlimit:4;stroke-opacity:1;stroke-dasharray:none" />
      <g
         transform="translate(18.7093,17.635421)"
         id="g3794">
        <path
           sodipodi:type="arc"
           style="fill:#afa9a9;fill-opacity:1;stroke:none"
           id="path3755"
           sodipodi:cx="6.3134532"
           sodipodi:cy="33.94796"
           sodipodi:rx="3.0304577"
           sodipodi:ry="3.0304577"
           d="m 9.3439109,33.94796 c 0,1.673675 -1.3567821,3.030458 -3.0304577,3.030458 -1.6736756,0 -3.0304577,-1.356783 -3.0304577,-3.030458 0,-1.673676 1.3567821,-3.030458 3.0304577,-3.030458 1.6736756,0 3.0304577,1.356782 3.0304577,3.030458 z"
           transform="matrix(0.65996631,0,0,0.65996631,1.8918909,999.74736)" />
        <path
           transform="matrix(0.65996631,0,0,0.65996631,9.1240345,999.74736)"
           d="m 9.3439109,33.94796 c 0,1.673675 -1.3567821,3.030458 -3.0304577,3.030458 -1.6736756,0 -3.0304577,-1.356783 -3.0304577,-3.030458 0,-1.673676 1.3567821,-3.030458 3.0304577,-3.030458 1.6736756,0 3.0304577,1.356782 3.0304577,3.030458 z"
           sodipodi:ry="3.0304577"
           sodipodi:rx="3.0304577"
           sodipodi:cy="33.94796"
           sodipodi:cx="6.3134532"
           id="path3790"
           style="fill:#afa9a9;fill-opacity:1;stroke:none"
           sodipodi:type="arc" />
        <path
           sodipodi:type="arc"
           style="fill:#afa9a9;fill-opacity:1;stroke:none"
           id="path3792"
           sodipodi:cx="6.3134532"
           sodipodi:cy="33.94796"
           sodipodi:rx="3.0304577"
           sodipodi:ry="3.0304577"
           d="m 9.3439109,33.94796 c 0,1.673675 -1.3567821,3.030458 -3.0304577,3.030458 -1.6736756,0 -3.0304577,-1.356783 -3.0304577,-3.030458 0,-1.673676 1.3567821,-3.030458 3.0304577,-3.030458 1.6736756,0 3.0304577,1.356782 3.0304577,3.030458 z"
           transform="matrix(0.65996631,0,0,0.65996631,16.356177,999.74736)" />
      </g>
      <g
         transform="translate(18.7093,-17.194536)"
         id="g3799">
        <path
           transform="matrix(0.65996631,0,0,0.65996631,1.8918909,999.74736)"
           d="m 9.3439109,33.94796 c 0,1.673675 -1.3567821,3.030458 -3.0304577,3.030458 -1.6736756,0 -3.0304577,-1.356783 -3.0304577,-3.030458 0,-1.673676 1.3567821,-3.030458 3.0304577,-3.030458 1.6736756,0 3.0304577,1.356782 3.0304577,3.030458 z"
           sodipodi:ry="3.0304577"
           sodipodi:rx="3.0304577"
           sodipodi:cy="33.94796"
           sodipodi:cx="6.3134532"
           id="path3801"
           style="fill:#afa9a9;fill-opacity:1;stroke:none"
           sodipodi:type="arc" />
        <path
           sodipodi:type="arc"
           style="fill:#afa9a9;fill-opacity:1;stroke:none"
           id="path3803"
           sodipodi:cx="6.3134532"
           sodipodi:cy="33.94796"
           sodipodi:rx="3.0304577"
           sodipodi:ry="3.0304577"
           d="m 9.3439109,33.94796 c 0,1.673675 -1.3567821,3.030458 -3.0304577,3.030458 -1.6736756,0 -3.0304577,-1.356783 -3.0304577,-3.030458 0,-1.673676 1.3567821,-3.030458 3.0304577,-3.030458 1.6736756,0 3.0304577,1.356782 3.0304577,3.030458 z"
           transform="matrix(0.65996631,0,0,0.65996631,9.1240345,999.74736)" />
        <path
           transform="matrix(0.65996631,0,0,0.65996631,16.356177,999.74736)"
           d="m 9.3439109,33.94796 c 0,1.673675 -1.3567821,3.030458 -3.0304577,3.030458 -1.6736756,0 -3.0304577,-1.356783 -3.0304577,-3.030458 0,-1.673676 1.3567821,-3.030458 3.0304577,-3.030458 1.6736756,0 3.0304577,1.356782 3.0304577,3.030458 z"
           sodipodi:ry="3.0304577"
           sodipodi:rx="3.0304577"
           sodipodi:cy="33.94796"
           sodipodi:cx="6.3134532"
           id="path3805"
           style="fill:#afa9a9;fill-opacity:1;stroke:none"
           sodipodi:type="arc" />
      </g>
    </g>
  </g>
</svg>
